<?xml version="1.0" standalone="no"?>
<!DOCTYPE svg PUBLIC "-//W3C//DTD SVG 20010904//EN"
 "http://www.w3.org/TR/2001/REC-SVG-20010904/DTD/svg10.dtd">
<svg version="1.0" xmlns="http://www.w3.org/2000/svg"
 width="1290.000000pt" height="1600.000000pt" viewBox="0 0 1290.000000 1600.000000"
 preserveAspectRatio="xMidYMid meet">

<g transform="translate(0.000000,1600.000000) scale(0.100000,-0.100000)"
fill="#000000" stroke="none">
<path d="M5979 14989 c-26 -4 -55 -11 -65 -17 -11 -5 -64 -12 -119 -16 -55 -3
-125 -8 -155 -10 -30 -3 -90 -8 -134 -12 -43 -3 -90 -12 -105 -20 -14 -8 -35
-14 -45 -14 -11 0 -38 -9 -60 -19 -29 -14 -73 -21 -146 -25 -138 -7 -192 -15
-210 -31 -8 -7 -25 -16 -37 -19 -13 -4 -23 -12 -23 -17 0 -5 -5 -9 -10 -9 -11
0 -48 -26 -163 -112 -35 -26 -72 -49 -83 -51 -10 -2 -35 -11 -54 -20 -19 -8
-38 -13 -41 -11 -4 2 -10 -7 -13 -21 -5 -18 -12 -24 -28 -22 -11 1 -23 -4 -25
-11 -3 -7 1 -10 9 -7 7 3 20 0 28 -5 13 -9 13 -11 0 -20 -8 -5 -19 -8 -25 -7
-5 2 -15 -6 -21 -17 -5 -12 -18 -20 -27 -20 -12 1 -17 -6 -17 -27 0 -24 -4
-29 -25 -29 -14 0 -24 -3 -23 -7 1 -5 -4 -21 -10 -36 -7 -16 -12 -37 -12 -48
0 -11 -10 -45 -23 -77 -13 -31 -22 -71 -21 -89 1 -18 -1 -32 -5 -31 -20 2 -29
-5 -33 -25 -3 -15 0 -24 8 -24 7 0 10 7 6 16 -5 14 -3 14 11 2 22 -17 23 -56
2 -47 -10 3 -15 -1 -15 -12 0 -15 -2 -15 -11 -2 -8 12 -9 11 -5 -5 7 -29 16
-100 20 -170 2 -32 8 -61 15 -63 17 -6 13 -43 -9 -86 -13 -23 -18 -42 -12 -49
5 -7 9 -27 10 -45 2 -18 9 -43 17 -55 14 -22 17 -130 3 -121 -12 8 6 -41 19
-51 9 -7 15 -38 18 -90 6 -116 16 -195 26 -201 5 -3 9 -24 9 -47 0 -23 4 -69
9 -102 5 -33 12 -139 15 -235 7 -186 13 -240 27 -240 5 0 9 -11 9 -25 0 -25
30 -98 43 -103 4 -2 7 -16 7 -31 0 -15 7 -42 16 -59 20 -42 33 -167 21 -214
-7 -29 -6 -42 7 -60 21 -29 22 -61 2 -32 -21 28 -30 11 -13 -23 8 -15 18 -75
22 -133 4 -58 18 -147 31 -199 13 -52 27 -119 31 -148 4 -35 9 -50 14 -41 5 7
6 36 3 63 -10 105 -11 155 -3 300 4 83 10 233 14 335 6 191 10 211 74 410 57
176 56 171 42 179 -10 6 -10 13 -3 28 6 11 10 34 10 51 -1 18 2 35 5 39 4 3 2
12 -4 20 -8 9 -8 17 -1 26 5 7 7 33 3 63 -4 28 -4 62 0 77 4 14 3 27 -2 29 -4
2 1 30 11 62 11 33 20 67 20 77 0 10 6 24 13 31 13 13 29 80 29 125 0 28 25
20 31 -10 4 -19 11 32 10 69 0 7 21 22 48 34 27 13 45 28 42 33 -4 6 -1 7 6 2
8 -4 23 4 41 24 16 17 38 31 50 31 12 0 19 4 16 8 -2 4 19 18 47 30 29 13 71
32 95 42 23 11 54 20 68 20 32 0 66 18 59 31 -4 5 1 9 9 9 9 0 16 5 16 11 0 7
15 10 40 7 22 -2 40 0 40 5 0 10 130 6 152 -5 19 -9 146 -21 213 -20 52 1 89
20 74 39 -9 10 -6 13 13 13 13 0 29 5 36 12 9 9 12 9 12 0 0 -10 5 -10 21 -2
11 6 25 9 32 6 7 -2 3 -5 -8 -7 -11 -1 7 -6 40 -10 142 -18 218 -38 211 -54
-3 -9 7 -10 37 -4 23 4 49 3 59 -2 22 -12 31 -11 23 1 -3 6 0 10 9 10 8 0 23
3 33 6 13 4 15 3 5 -4 -11 -7 -6 -12 18 -21 28 -9 31 -9 20 4 -11 14 -9 14 16
5 16 -6 31 -11 34 -11 12 1 86 -23 98 -32 8 -7 12 -5 12 5 0 8 12 20 26 26 14
7 23 8 19 2 -3 -5 2 -10 12 -11 16 0 17 -1 1 -7 -12 -5 -14 -12 -9 -21 7 -11
12 -10 26 7 l18 20 31 -29 c17 -16 34 -29 39 -29 16 0 23 -4 35 -19 12 -15 13
-14 8 1 -8 26 11 32 24 8 6 -11 15 -18 21 -15 5 4 7 11 4 16 -4 5 2 6 11 2 13
-5 16 -3 11 10 -10 27 35 1 58 -34 11 -16 32 -33 48 -38 15 -6 27 -13 27 -16
0 -3 -5 -3 -12 1 -7 4 -8 3 -4 -4 4 -6 13 -9 20 -6 7 3 19 -2 26 -11 7 -8 17
-15 23 -15 7 0 7 4 -1 12 -17 17 -15 33 3 18 8 -7 15 -19 15 -28 0 -8 3 -12 7
-9 3 4 12 -1 20 -11 8 -9 12 -11 8 -5 -4 8 -1 11 8 7 8 -3 19 -16 26 -30 6
-15 7 -23 1 -19 -15 9 -12 -4 5 -21 11 -11 15 -12 15 -3 0 7 3 10 6 7 3 -4 1
-15 -5 -26 -8 -16 -7 -21 4 -26 8 -3 16 -16 16 -28 1 -17 2 -18 6 -5 2 9 10
17 16 17 8 0 7 3 -2 9 -15 10 -5 34 12 28 6 -2 10 -24 10 -50 -1 -40 2 -47 18
-47 10 0 18 -6 17 -12 -2 -7 3 -12 10 -10 6 1 12 -4 12 -12 0 -8 4 -18 10 -21
6 -3 7 1 4 9 -8 21 3 20 23 0 18 -17 29 -79 14 -69 -16 9 -22 -31 -10 -61 l12
-29 7 25 c6 22 7 21 12 -15 4 -22 5 -62 3 -90 -3 -34 -1 -44 5 -30 7 16 9 17
9 3 1 -9 -3 -19 -8 -23 -5 -3 -8 -36 -6 -73 3 -45 1 -62 -5 -52 -8 13 -10 12
-10 -3 0 -10 5 -28 11 -39 9 -17 8 -23 -5 -30 -9 -5 -14 -14 -11 -19 4 -5 11
-7 16 -3 5 3 9 2 8 -3 -3 -21 15 -54 28 -49 8 4 17 -4 23 -20 13 -33 6 -44
-31 -44 -19 0 -28 -4 -23 -11 3 -6 -3 -24 -15 -39 -11 -16 -17 -31 -12 -35 5
-3 12 1 14 7 3 8 6 8 6 2 1 -6 -7 -21 -18 -33 -16 -19 -20 -19 -31 -6 -11 13
-10 14 4 9 9 -3 16 -1 16 4 0 13 -36 25 -50 17 -5 -3 -10 -1 -10 4 0 6 -7 11
-15 11 -22 0 -18 -16 10 -38 32 -25 33 -37 1 -17 -24 16 -24 16 -19 -7 3 -13
13 -31 21 -41 15 -16 14 -17 -3 -11 -14 6 -16 4 -10 -6 5 -9 4 -11 -4 -6 -6 4
-9 11 -6 15 5 10 -68 61 -88 61 -7 0 -30 9 -52 20 -21 11 -41 18 -43 15 -3 -3
1 -5 9 -5 8 0 5 -6 -8 -15 -12 -8 -30 -12 -40 -9 -16 6 -16 5 2 -10 20 -17 20
-17 -5 -10 -14 4 -27 10 -30 14 -8 11 -40 20 -40 11 0 -5 10 -16 23 -24 21
-15 21 -16 -12 -7 -19 5 -37 7 -40 5 -2 -3 1 -5 7 -5 6 0 14 -10 17 -21 6 -17
9 -19 16 -8 7 11 9 11 9 1 0 -7 5 -10 10 -7 6 3 10 2 10 -3 0 -12 38 -23 42
-12 2 4 23 -1 48 -11 l45 -19 -50 6 c-27 3 -68 10 -90 15 -23 5 -41 4 -43 -1
-2 -5 -14 -5 -28 1 -31 11 -47 12 -40 1 3 -5 -15 -7 -39 -6 -28 2 -45 -2 -48
-10 -4 -10 -27 -12 -84 -10 -51 2 -69 0 -53 -6 23 -7 -30 -13 -137 -14 -12 0
-20 -3 -17 -7 2 -4 -13 -10 -34 -14 -20 -4 -42 -11 -48 -16 -6 -5 -28 -12 -50
-17 -21 -4 -39 -13 -39 -19 0 -6 -11 -24 -24 -39 -16 -19 -19 -25 -7 -21 19 7
21 -4 4 -21 -9 -9 -9 -12 0 -12 7 0 12 -5 12 -11 0 -5 -4 -8 -9 -5 -5 3 -11
-1 -15 -9 -3 -9 -12 -12 -23 -8 -16 6 -16 5 -4 -10 10 -13 11 -20 2 -30 -6 -8
-8 -16 -5 -20 3 -3 1 -22 -6 -42 -10 -30 -9 -40 4 -60 9 -13 16 -32 16 -42 0
-14 2 -15 9 -4 7 11 10 9 16 -8 3 -11 12 -21 20 -21 7 0 16 -6 19 -12 2 -7 3
4 1 25 -2 21 -7 42 -11 48 -4 7 1 9 12 7 13 -3 18 -11 17 -26 -3 -25 12 -30
21 -7 3 8 17 15 31 15 14 0 25 5 25 10 0 6 -4 10 -10 10 -5 0 -7 7 -4 15 4 10
13 13 25 10 11 -4 19 -2 19 4 0 6 5 11 11 11 6 0 24 10 40 23 82 64 93 71 85
57 -7 -13 -6 -13 6 0 23 26 48 24 48 -5 0 -37 23 -86 54 -114 18 -18 41 -26
79 -29 49 -4 57 -1 90 27 20 18 41 48 47 66 7 20 18 35 27 35 13 0 13 3 3 15
-7 9 -10 18 -6 22 3 3 6 1 6 -6 0 -7 13 -17 29 -22 19 -7 33 -21 41 -42 6 -18
16 -40 21 -49 13 -25 1 -46 -31 -53 -15 -3 -41 -18 -57 -33 -34 -31 -50 -64
-27 -55 10 4 13 0 8 -13 -5 -16 -4 -17 6 -4 9 11 13 12 17 2 2 -6 9 -10 14 -6
5 3 16 -2 25 -10 18 -18 49 -22 38 -5 -5 8 -1 8 14 0 31 -17 36 -15 87 34 26
24 50 44 54 43 3 -1 19 4 34 10 16 7 34 12 41 12 8 0 19 7 26 15 16 20 4 101
-16 109 -12 5 -13 10 -4 27 9 16 8 26 -5 45 -8 13 -22 24 -30 24 -8 0 -15 6
-15 14 0 26 -30 38 -102 41 -40 2 -75 4 -78 5 -3 1 -105 1 -227 0 -123 -1
-223 1 -223 4 0 9 109 56 130 56 10 0 31 5 47 11 15 6 61 13 102 15 40 2 79 8
86 14 17 14 55 21 55 10 0 -4 7 -11 16 -14 8 -3 13 -2 10 2 -3 5 12 8 32 8 20
1 29 -1 20 -3 -25 -6 -22 -23 3 -23 13 0 18 -4 13 -12 -5 -8 -2 -9 10 -5 35
14 72 19 57 9 -7 -5 -11 -14 -7 -20 3 -6 -4 -13 -16 -15 l-23 -4 23 -2 c13 0
20 -5 17 -11 -8 -12 -7 -12 54 1 35 7 56 7 68 0 14 -8 8 -10 -29 -11 -27 0
-48 -5 -48 -10 0 -7 17 -8 46 -4 42 5 46 4 40 -11 -5 -13 -2 -16 10 -11 8 3
25 6 37 7 21 1 21 1 -1 7 -26 8 -26 27 0 26 14 0 15 3 7 20 -9 19 -8 19 10 -1
20 -24 48 -32 34 -10 -4 6 -9 23 -11 37 -3 24 -3 24 18 5 18 -16 23 -17 30 -5
7 10 10 11 10 3 0 -23 30 -14 40 12 10 27 28 29 47 5 7 -10 8 -19 2 -27 -14
-16 10 -53 29 -46 12 5 12 3 0 -16 -11 -18 -11 -23 1 -30 8 -5 11 -16 8 -25
-3 -8 -2 -18 4 -21 5 -4 7 -10 4 -14 -2 -5 2 -37 9 -72 9 -45 10 -69 2 -81 -7
-12 -6 -24 2 -43 17 -37 16 -66 -3 -59 -24 10 -17 -13 10 -34 28 -23 35 -58 9
-48 -14 5 -15 1 -10 -26 14 -64 16 -99 7 -94 -14 9 -25 -14 -13 -26 7 -7 4
-25 -10 -57 -10 -25 -17 -57 -15 -70 3 -13 -1 -38 -8 -55 -6 -17 -11 -48 -9
-68 2 -21 -1 -40 -7 -43 -5 -4 -6 -11 -3 -17 4 -6 0 -14 -7 -19 -10 -6 -14
-42 -14 -146 -1 -113 -4 -144 -19 -172 -15 -27 -16 -39 -7 -53 7 -11 8 -25 2
-35 -5 -10 -20 -43 -35 -73 -14 -30 -26 -50 -26 -45 0 6 -5 2 -11 -7 -7 -13
-5 -28 7 -54 13 -28 14 -38 5 -44 -7 -4 -11 -18 -10 -31 2 -13 1 -28 -3 -34
-3 -5 -8 -28 -9 -50 -4 -36 -2 -40 19 -39 18 1 24 -6 29 -27 3 -16 10 -26 16
-22 6 3 7 1 3 -6 -4 -6 -12 -9 -17 -6 -5 4 -9 -2 -9 -12 0 -19 -18 -43 -32
-43 -4 0 -8 9 -8 21 0 13 4 18 13 13 6 -4 3 2 -7 14 -19 22 -32 30 -22 14 3
-5 1 -22 -4 -38 -8 -27 -8 -27 -9 -5 -1 13 -4 21 -8 18 -3 -4 -12 -2 -20 4 -9
9 -13 8 -13 0 0 -6 5 -11 11 -11 14 0 6 -74 -9 -93 -7 -8 -13 -23 -15 -35 -4
-29 -17 -40 -17 -16 0 11 -7 29 -15 40 -13 17 -14 11 -14 -69 1 -49 -2 -91 -5
-94 -3 -4 -6 10 -6 30 0 51 -18 56 -19 5 -2 -82 -2 -83 -18 -62 -7 10 -13 23
-14 28 0 6 -5 0 -11 -14 -9 -21 -12 -22 -15 -7 -3 10 2 26 11 36 9 10 16 23
16 31 0 34 -40 -43 -42 -80 -1 -22 -4 -36 -8 -30 -4 6 -5 23 -3 38 4 23 3 25
-7 9 -6 -9 -15 -15 -21 -12 -5 4 -9 -3 -9 -14 0 -12 -3 -21 -6 -21 -10 0 -32
26 -37 46 -4 17 -5 17 -6 1 0 -10 -6 -15 -11 -12 -7 4 -9 -3 -5 -22 l6 -28
-20 24 -21 23 2 -25 c1 -14 6 -23 10 -21 4 3 8 -1 8 -9 0 -8 3 -29 7 -47 4
-24 3 -31 -6 -26 -6 4 -14 0 -17 -9 -6 -14 -8 -14 -20 2 -7 10 -14 28 -14 40
0 12 -4 24 -8 27 -5 3 -8 -4 -8 -16 1 -12 -5 -23 -13 -26 -8 -2 -12 -1 -10 4
3 5 -11 25 -30 44 -22 23 -31 28 -27 16 7 -19 6 -19 -13 -2 -19 18 -20 18 -18
-8 1 -15 7 -30 12 -34 15 -11 16 -29 0 -29 -7 0 -11 5 -9 12 3 6 -4 11 -14 12
-10 1 -18 -6 -19 -15 -4 -48 -8 -59 -20 -55 -8 3 -13 2 -12 -3 4 -16 -30 -84
-41 -84 -6 0 -21 5 -33 11 -21 10 -21 10 -3 -5 11 -9 24 -16 29 -16 6 0 -1 -9
-14 -21 -13 -11 -31 -18 -41 -16 -9 3 -19 -1 -22 -9 -3 -8 -15 -14 -26 -14
-11 0 -20 -7 -20 -16 0 -8 -4 -12 -10 -9 -5 3 -10 0 -10 -9 0 -21 -22 -26 -42
-8 -16 14 -18 13 -18 -1 0 -35 -20 -15 -21 21 -1 26 -3 30 -6 13 -4 -19 -7
-21 -14 -10 -6 10 -9 5 -9 -17 0 -23 -5 -33 -19 -37 -18 -4 -19 -3 -5 35 7 21
9 36 4 33 -6 -3 -10 -12 -10 -20 0 -18 -29 -47 -41 -40 -5 4 -9 -5 -9 -20 0
-14 -7 -28 -15 -32 -19 -7 -26 -1 -28 24 0 11 -7 20 -14 20 -9 0 -10 -4 -2
-13 6 -7 8 -23 4 -35 -5 -15 -9 -18 -15 -9 -5 8 -13 9 -21 4 -8 -5 -20 -9 -28
-11 -8 -1 -18 -8 -23 -15 -7 -10 -11 -10 -22 4 -10 14 -15 15 -26 5 -10 -10
-11 -5 -6 23 4 25 3 31 -4 20 -6 -10 -10 -11 -10 -3 0 7 -13 -1 -30 -19 -16
-17 -30 -35 -30 -40 0 -5 -4 -6 -10 -3 -5 3 -10 1 -10 -6 0 -7 -2 -10 -5 -8
-2 3 5 24 16 46 11 23 19 52 16 65 -3 20 -5 19 -12 -9 -4 -18 -12 -30 -17 -27
-5 4 -8 -2 -7 -12 5 -31 -9 -44 -41 -37 -20 4 -30 1 -30 -6 0 -8 -6 -7 -16 4
-13 12 -13 19 -4 30 6 8 10 22 7 32 -4 14 -5 13 -6 -4 0 -13 -7 -22 -13 -20
-8 1 -12 -7 -10 -22 3 -16 0 -21 -8 -16 -7 4 -16 1 -21 -6 -6 -9 -7 -4 -3 16
7 30 7 30 -14 11 -12 -10 -19 -23 -15 -29 3 -5 1 -7 -5 -4 -5 4 -8 26 -6 50 4
38 3 40 -7 17 l-12 -25 -7 25 c-5 14 -8 19 -9 12 -1 -7 -5 -11 -10 -8 -5 3
-11 -3 -14 -14 -3 -11 -1 -18 4 -14 10 6 13 -19 3 -29 -11 -10 -36 22 -28 35
5 9 2 8 -9 -1 -16 -12 -17 -12 -11 5 5 18 5 18 -9 2 -21 -26 -27 -22 -27 15
l0 32 -25 -29 c-24 -28 -31 -24 -26 13 2 7 -2 10 -8 6 -6 -3 -11 -14 -12 -23
0 -11 -3 -12 -6 -4 -2 6 -11 12 -18 12 -7 0 -15 8 -18 18 -3 14 -6 13 -15 -8
l-11 -25 -1 25 c0 20 -2 22 -10 10 -9 -13 -10 -13 -10 0 -1 17 -50 57 -50 40
0 -19 -25 -5 -70 40 -57 56 -87 81 -75 61 5 -10 4 -12 -3 -7 -7 4 -12 14 -12
21 0 8 -6 12 -14 9 -20 -8 -30 14 -14 33 11 14 10 16 -13 11 -22 -4 -25 -2
-21 14 4 18 -17 26 -32 11 -9 -9 -86 -13 -86 -4 0 3 -20 5 -45 3 -28 -3 -45 0
-45 7 0 6 5 11 10 11 6 0 10 6 10 14 0 8 6 17 13 19 7 3 5 6 -6 6 -10 1 -20
-5 -23 -13 -5 -12 -11 -13 -30 -4 -13 6 -24 15 -24 20 0 5 -4 6 -10 3 -5 -3
-10 1 -10 10 0 11 -5 15 -16 11 -17 -6 -12 6 14 37 14 16 14 17 0 12 -13 -5
-15 -2 -11 14 6 24 -12 29 -21 6 -6 -16 -26 -16 -38 0 -9 13 -18 3 -24 -29 -4
-24 3 -31 28 -27 4 0 5 -6 2 -14 -6 -14 63 -96 125 -149 59 -52 213 -206 205
-206 -5 0 5 -9 23 -19 27 -17 99 -107 96 -121 -1 -6 1 -12 27 -87 16 -43 26
-60 36 -56 9 3 14 -2 14 -15 0 -11 3 -28 7 -38 4 -12 3 -15 -5 -10 -7 4 -12 2
-12 -3 0 -11 10 -14 45 -12 11 0 14 -2 8 -5 -17 -7 -16 -49 0 -63 8 -6 16 -8
20 -5 10 11 24 -31 24 -73 0 -23 6 -49 13 -58 14 -17 35 -21 25 -4 -4 5 -8 21
-9 33 -2 19 1 22 18 18 18 -4 16 1 -12 30 -22 23 -31 40 -26 52 5 14 15 9 58
-31 64 -60 72 -72 58 -94 -8 -12 -8 -20 -2 -24 6 -3 10 0 10 7 0 7 9 -2 20
-20 20 -33 44 -39 46 -11 1 8 2 20 3 28 1 8 8 11 21 8 31 -8 24 6 -26 47 -46
38 -53 57 -15 36 27 -14 27 1 1 25 -19 17 -19 19 -3 31 14 10 23 9 46 -3 27
-14 28 -14 17 6 -6 12 -15 21 -20 21 -5 0 -8 13 -7 29 2 26 4 27 25 18 14 -7
18 -13 11 -17 -19 -12 19 -20 97 -20 48 0 74 4 74 11 0 8 18 10 60 5 33 -4 67
-3 77 3 12 6 36 5 70 -2 67 -15 72 -22 18 -23 -25 0 -42 3 -39 8 7 11 -7 10
-26 -2 -13 -8 -12 -10 3 -10 9 0 17 -4 17 -8 0 -12 148 -14 155 -2 3 5 11 10
18 10 17 0 -55 -50 -72 -50 -13 -1 -13 -3 2 -14 10 -8 14 -16 10 -18 -4 -3 -2
-3 5 -1 8 1 20 3 28 3 9 0 12 5 9 11 -5 7 19 8 80 4 58 -4 85 -3 81 4 -4 6
-13 8 -21 4 -8 -3 -26 -2 -40 1 -29 7 -24 36 6 36 10 0 19 4 19 10 0 10 5 10
130 12 42 1 58 3 35 5 -28 3 -35 7 -25 14 10 6 4 7 -20 3 -29 -4 -32 -3 -17 6
10 7 29 9 42 6 13 -3 41 0 62 8 51 19 96 30 108 26 6 -2 33 -6 62 -10 28 -5
64 -10 80 -12 15 -3 22 -3 16 -1 -7 3 -13 8 -13 12 0 5 -11 6 -25 3 -34 -6
-32 16 3 24 45 10 48 12 17 14 l-30 1 25 14 c14 8 33 12 43 9 9 -3 17 -1 17 4
0 14 53 22 67 10 7 -6 11 -13 8 -17 -2 -4 10 -5 28 -2 l32 5 -30 7 c-16 4 -24
7 -17 8 21 2 3 21 -19 21 -11 0 -17 5 -14 10 3 6 -3 10 -14 10 -12 0 -21 -4
-21 -10 0 -5 -11 -10 -23 -10 -13 0 -34 -9 -47 -20 -24 -21 -58 -35 -67 -27
-2 3 5 8 17 12 12 4 33 17 47 28 13 12 36 27 51 34 15 7 19 11 10 8 -10 -2
-18 0 -18 5 0 6 39 8 93 7 50 -2 82 -2 70 0 -12 3 -26 10 -32 17 -15 17 3 31
49 40 21 5 30 4 22 -2 -11 -7 5 -8 83 -2 6 0 3 5 -5 10 -12 8 -8 10 15 11 17
1 34 1 38 0 5 -1 5 3 2 9 -9 15 24 38 45 33 9 -2 22 3 29 11 8 10 9 16 3 16
-6 0 -14 -4 -17 -10 -10 -16 -25 -12 -19 5 8 21 -2 19 -32 -7 -63 -56 -135
-81 -120 -42 4 10 0 14 -11 12 -35 -6 -23 23 16 40 23 11 39 21 36 24 -3 3 1
11 9 17 11 9 20 10 35 2 25 -14 31 -14 31 0 0 5 -4 8 -8 5 -5 -3 -9 1 -9 8 0
8 9 11 23 8 26 -5 74 24 74 45 0 12 -3 12 -16 -1 -28 -29 -51 -37 -58 -21 -3
8 -1 17 4 20 4 3 10 -1 13 -7 2 -7 10 0 18 17 20 43 49 61 49 30 0 -18 19 -20
21 -2 1 6 5 -1 9 -18 l7 -30 10 25 c6 14 27 43 47 64 20 22 36 44 36 49 0 5 7
7 15 3 8 -3 15 -1 15 3 0 5 -6 11 -12 14 -7 2 -9 8 -5 13 11 11 28 -17 23 -38
-2 -9 1 -19 6 -20 7 -3 4 -16 -6 -35 -9 -18 -12 -34 -7 -37 13 -8 34 21 25 35
-4 8 -3 9 4 5 14 -9 127 160 171 254 35 77 74 193 91 272 12 52 11 58 -8 82
-11 15 -23 22 -26 17 -7 -11 -58 12 -76 34 -25 31 -27 13 -4 -55 l24 -70 -25
-39 c-40 -64 -45 -60 -46 31 -1 46 -3 133 -4 193 -1 101 11 345 19 352 1 2 20
-3 42 -10 40 -15 79 -10 66 8 -11 17 -61 46 -75 44 -30 -4 -33 4 -34 86 -1 76
1 85 18 85 10 0 23 -8 28 -17 10 -17 10 -17 11 0 0 9 -5 17 -12 17 -6 0 -8 3
-5 7 4 3 1 13 -6 22 -19 24 -35 80 -38 131 -3 70 0 80 20 80 25 0 44 25 46 59
2 27 0 27 -39 24 l-41 -4 -3 67 c-3 65 10 150 30 188 5 10 6 16 1 13 -5 -3
-10 11 -11 31 -1 20 -4 51 -5 69 -2 17 1 30 5 27 4 -3 8 4 8 16 0 16 4 20 18
16 12 -4 26 2 38 15 18 20 18 21 -6 39 -22 17 -23 20 -10 44 7 14 17 26 22 26
4 0 8 7 8 16 0 9 11 29 25 46 16 19 25 43 26 66 1 20 3 29 6 19 2 -10 10 -16
16 -15 21 4 57 -22 57 -42 0 -11 9 -24 20 -30 11 -6 18 -14 16 -18 -3 -5 -1
-14 3 -21 6 -9 9 -6 9 10 0 13 5 36 11 52 9 24 13 26 31 15 11 -7 20 -20 21
-28 0 -10 4 -9 10 5 13 26 -21 123 -51 150 -20 18 -21 18 -50 -4 -17 -12 -30
-17 -30 -11 0 5 5 10 10 10 6 0 10 12 10 26 0 19 7 28 30 37 17 6 30 15 30 19
0 3 -13 16 -30 28 -30 21 -41 62 -20 75 6 3 10 22 10 41 0 19 4 33 9 30 10 -7
22 188 16 269 -15 197 -8 405 16 519 26 124 25 233 -5 351 -14 53 -34 116 -46
140 -43 89 -177 212 -217 199 -15 -5 -15 -4 -3 5 12 8 8 13 -20 25 -19 8 -28
16 -20 16 13 1 13 2 0 13 -9 8 -15 30 -16 62 -1 71 -11 102 -34 108 -20 5 -28
27 -10 27 6 0 10 -5 10 -12 0 -6 3 -9 6 -6 7 8 -11 43 -53 98 -53 70 -77 111
-97 163 -11 30 -26 51 -40 57 -12 4 -28 16 -36 26 -14 16 -13 16 10 4 24 -12
23 -11 -5 20 -35 37 -140 112 -205 147 -25 13 -77 44 -117 68 -73 44 -158 78
-337 135 -54 17 -115 40 -135 51 -19 10 -54 19 -76 19 -67 1 -113 16 -159 54
-43 35 -66 45 -66 28 0 -12 -48 -7 -89 10 -27 10 -35 10 -38 1 -5 -15 -56 -17
-81 -4 -24 12 -128 18 -183 10z m1496 -589 c3 -5 1 -10 -4 -10 -6 0 -11 5 -11
10 0 6 2 10 4 10 3 0 8 -4 11 -10z m205 -364 c0 -3 -4 -8 -10 -11 -5 -3 -10
-1 -10 4 0 6 5 11 10 11 6 0 10 -2 10 -4z m187 -262 c34 -32 16 -31 -21 1 -16
14 -35 25 -42 25 -7 0 -15 4 -19 10 -11 17 56 -12 82 -36z m-3533 11 c3 -8 1
-15 -4 -15 -6 0 -10 7 -10 15 0 8 2 15 4 15 2 0 6 -7 10 -15z m3611 -85 c9
-16 13 -30 11 -30 -3 0 -14 14 -26 30 -12 17 -17 30 -11 30 6 0 17 -13 26 -30z
m-2088 -16 c-3 -3 -12 -4 -19 -1 -8 3 -5 6 6 6 11 1 17 -2 13 -5z m-1576 -27
c-10 -9 -11 -8 -5 6 3 10 9 15 12 12 3 -3 0 -11 -7 -18z m1589 -1 c0 -2 -7 -6
-15 -10 -8 -3 -15 -1 -15 4 0 6 7 10 15 10 8 0 15 -2 15 -4z m655 -34 c-3 -3
-11 0 -18 7 -9 10 -8 11 6 5 10 -3 15 -9 12 -12z m40 -12 c3 -5 2 -10 -4 -10
-5 0 -13 5 -16 10 -3 6 -2 10 4 10 5 0 13 -4 16 -10z m435 -120 c-18 -12 -30
-13 -30 -2 0 4 10 9 22 9 18 2 20 0 8 -7z m40 -26 c0 -8 -4 -12 -10 -9 -5 3
-10 13 -10 21 0 8 5 12 10 9 6 -3 10 -13 10 -21z m420 -924 c0 -5 -2 -10 -4
-10 -3 0 -8 5 -11 10 -3 6 -1 10 4 10 6 0 11 -4 11 -10z m-10 -31 c0 -6 -4 -7
-10 -4 -5 3 -10 11 -10 16 0 6 5 7 10 4 6 -3 10 -11 10 -16z m-50 -79 c0 -5
-4 -10 -9 -10 -6 0 -13 5 -16 10 -3 6 1 10 9 10 9 0 16 -4 16 -10z m-270 -50
c-12 -8 -10 -10 9 -10 13 0 22 -3 18 -6 -3 -4 -18 -3 -34 0 -21 6 -24 9 -12
17 7 5 19 9 24 9 6 0 3 -5 -5 -10z m290 -5 c0 -8 -4 -15 -10 -15 -5 0 -10 7
-10 15 0 8 5 15 10 15 6 0 10 -7 10 -15z m-6 -40 c3 -8 2 -15 -3 -15 -5 0 -14
7 -21 15 -10 12 -10 15 3 15 8 0 17 -7 21 -15z m36 -29 c0 -3 -4 -8 -10 -11
-5 -3 -10 -1 -10 4 0 6 5 11 10 11 6 0 10 -2 10 -4z m-633 -12 c-3 -3 -12 -4
-19 -1 -8 3 -5 6 6 6 11 1 17 -2 13 -5z m333 -28 c0 -2 -7 -7 -16 -10 -8 -3
-12 -2 -9 4 6 10 25 14 25 6z m53 -13 c-7 -2 -21 -2 -30 0 -10 3 -4 5 12 5 17
0 24 -2 18 -5z m151 -42 c-2 -3 -12 3 -22 13 -16 17 -16 18 5 5 12 -7 20 -15
17 -18z m-1003 4 c0 -6 -10 -16 -23 -24 -23 -13 -22 -13 1 6 16 13 20 22 12
26 -6 3 -7 5 0 4 6 -2 10 -7 10 -12z m318 -89 c-15 -13 -49 -25 -49 -17 0 5 8
12 18 14 24 6 36 8 31 3z m-59 -20 c0 -3 -4 -8 -10 -11 -5 -3 -10 -1 -10 4 0
6 5 11 10 11 6 0 10 -2 10 -4z m-148 -22 c-12 -8 -27 -12 -32 -9 -6 3 -10 0
-10 -7 0 -17 -71 -66 -87 -61 -22 8 -14 32 12 39 14 3 25 12 25 19 0 7 19 17
43 22 63 16 74 15 49 -3z m343 -33 c3 -5 1 -12 -5 -16 -5 -3 -10 1 -10 9 0 18
6 21 15 7z m-55 -11 c0 -5 -4 -10 -10 -10 -5 0 -10 5 -10 10 0 6 5 10 10 10 6
0 10 -4 10 -10z m762 -1347 c-2 -29 -1 -34 7 -23 6 8 11 10 11 4 0 -5 -7 -19
-16 -30 -8 -10 -13 -13 -9 -6 3 6 1 12 -4 12 -14 0 -14 36 -1 61 15 27 16 24
12 -18z m-31 -25 c1 -13 0 -39 -1 -58 -1 -33 -1 -34 14 -15 15 20 15 20 16 -2
0 -29 -14 -36 -32 -15 -22 25 -28 48 -15 61 8 8 8 14 -1 23 -16 16 -15 28 3
28 9 0 15 -10 16 -22z m56 -80 c-3 -8 -6 -5 -6 6 -1 11 2 17 5 13 3 -3 4 -12
1 -19z m-71 -83 c-9 -14 -13 -25 -9 -25 5 0 1 -4 -7 -9 -24 -16 -31 -2 -15 30
9 16 23 29 31 29 15 0 15 -2 0 -25z m-389 -527 c-3 -8 -6 -5 -6 6 -1 11 2 17
5 13 3 -3 4 -12 1 -19z m-81 -60 c1 -10 -1 -17 -4 -17 -4 1 -14 1 -22 0 -13
-1 -13 -2 0 -11 13 -8 12 -10 -2 -10 -18 0 -26 39 -11 54 12 12 36 2 39 -16z
m-1676 -21 c0 -2 -10 -12 -21 -23 -22 -19 -22 -19 -8 4 12 19 29 30 29 19z
m70 -73 c0 -15 -55 -13 -68 1 -4 4 3 5 16 2 12 -3 22 -2 22 2 0 4 7 8 15 8 8
0 15 -6 15 -13z m2126 -81 c-3 -3 -13 -2 -23 2 -17 8 -17 8 0 12 9 3 18 10 18
16 1 7 3 4 6 -6 3 -10 2 -21 -1 -24z m-311 -223 c-3 -5 -14 -10 -23 -9 -14 0
-13 2 3 9 27 11 27 11 20 0z m-300 -190 c3 -5 -3 -10 -14 -10 -12 0 -21 5 -21
10 0 6 6 10 14 10 8 0 18 -4 21 -10z m-180 -40 c-3 -5 -14 -10 -23 -10 -15 0
-15 2 -2 10 20 13 33 13 25 0z m-540 -10 c13 -6 -5 -8 -55 -8 -62 1 -68 2 -35
8 55 10 67 10 90 0z m372 -6 c-3 -3 -12 -4 -19 -1 -8 3 -5 6 6 6 11 1 17 -2
13 -5z m-520 -10 c-3 -3 -12 -4 -19 -1 -8 3 -5 6 6 6 11 1 17 -2 13 -5z m483
-3 c0 -13 -27 -20 -71 -19 -20 0 -45 -5 -56 -10 -12 -7 -25 -7 -34 -1 -10 6
-11 9 -1 9 7 0 10 4 7 10 -4 6 15 8 52 5 32 -2 65 0 73 5 19 12 30 12 30 1z
m-681 -15 c9 -10 7 -17 -6 -27 -9 -8 -14 -9 -10 -2 4 6 0 19 -9 27 -13 13 -13
16 -1 16 8 0 20 -6 26 -14z m616 -56 c-3 -5 -15 -10 -26 -10 -11 0 -17 5 -14
10 3 6 15 10 26 10 11 0 17 -4 14 -10z"/>
<path d="M6860 13513 c0 -5 8 -17 17 -28 14 -18 15 -18 9 -2 -3 10 -6 23 -6
28 0 5 -4 9 -10 9 -5 0 -10 -3 -10 -7z"/>
<path d="M7320 12543 c0 -5 4 -15 10 -23 11 -18 25 -7 17 15 -6 15 -27 21 -27
8z"/>
<path d="M7299 12501 c6 -10 7 -21 4 -25 -3 -3 1 -6 10 -6 25 0 32 22 12 37
-26 19 -37 16 -26 -6z"/>
<path d="M6867 12369 c-9 -5 -21 -8 -26 -4 -5 3 -12 1 -16 -5 -10 -16 41 -12
55 5 14 17 12 18 -13 4z"/>
<path d="M4915 12358 c-11 -6 -22 -14 -25 -17 -3 -4 -24 -15 -47 -25 -46 -20
-95 -67 -99 -93 -2 -9 2 -25 8 -36 7 -14 7 -17 -1 -13 -16 10 -18 -70 -2 -86
4 -4 38 7 76 26 38 19 62 35 54 38 -8 3 2 5 21 5 43 1 188 20 198 27 10 6 188
-19 215 -29 9 -4 17 -12 17 -17 0 -6 8 -7 18 -3 12 4 14 3 6 -5 -6 -6 -60 -15
-120 -21 -96 -8 -189 -22 -219 -33 -5 -2 -29 -7 -51 -11 -49 -8 -85 -49 -86
-96 -1 -16 -5 -29 -11 -29 -5 0 -7 -7 -3 -15 3 -9 0 -15 -9 -15 -10 0 -15 -10
-14 -32 0 -18 -3 -48 -7 -65 -7 -37 -3 -40 64 -47 29 -3 40 -2 36 6 -9 15 53
-31 86 -64 22 -22 36 -26 76 -26 27 1 41 3 32 5 -10 3 -18 9 -18 14 0 5 -8 9
-17 9 -16 1 -16 2 2 16 12 9 21 11 23 4 2 -6 10 -7 22 0 10 5 26 7 34 4 10 -4
16 -1 17 7 1 8 5 3 9 -11 5 -17 8 -19 9 -7 1 9 8 17 16 17 8 0 15 3 15 8 0 11
-20 38 -20 27 0 -5 -11 -10 -25 -10 -14 0 -25 3 -25 8 0 4 -14 7 -31 7 -17 0
-28 4 -24 10 4 6 -6 10 -22 10 -37 0 -79 28 -64 43 6 6 11 22 11 35 0 18 4 23
16 18 8 -3 12 -2 9 4 -3 5 6 25 21 43 36 46 75 45 85 -1 16 -77 114 -126 182
-91 53 28 73 58 91 141 6 25 9 26 32 18 26 -10 115 -68 124 -81 3 -4 13 -7 22
-6 9 1 17 -2 18 -7 0 -6 -12 -11 -27 -13 -16 -2 -39 -6 -53 -9 l-25 -6 23 -9
c13 -5 28 -6 34 -3 24 15 68 15 74 0 10 -26 24 -18 24 14 0 20 5 30 15 30 17
0 21 -35 5 -45 -11 -7 -4 -25 10 -25 5 0 12 9 15 21 4 11 13 18 20 15 31 -12
28 71 -6 137 -10 21 -19 43 -19 50 0 18 -55 64 -71 59 -8 -2 -6 2 5 9 17 10
15 13 -23 36 -43 25 -53 36 -23 26 14 -5 13 -3 -3 10 -11 9 -24 16 -30 17 -5
0 -3 -5 5 -10 13 -9 13 -10 0 -10 -8 1 -24 7 -34 15 -12 9 -42 15 -74 15 -34
0 -59 5 -68 15 -18 17 -70 20 -79 4 -5 -7 -14 -5 -28 4 -23 15 -171 22 -162 8
2 -4 -17 -8 -43 -8 -29 0 -36 2 -17 4 16 3 38 12 50 20 19 14 17 14 -20 7 -66
-13 -135 -11 -135 4 0 7 6 12 13 11 18 -4 76 11 82 21 8 13 -104 3 -120 -10
-8 -7 -20 -10 -27 -8 -7 3 6 15 30 27 23 12 42 22 42 24 0 8 -69 4 -85 -5z
m110 -98 c-15 -6 -8 -9 30 -12 l50 -5 -49 1 c-30 1 -51 6 -54 14 -2 7 5 12 20
11 22 0 22 -1 3 -9z m355 -173 c14 -3 45 -13 70 -21 40 -14 41 -15 10 -10 -85
13 -291 8 -317 -9 -6 -4 -15 -2 -18 4 -8 12 -1 22 18 25 7 2 32 7 57 13 44 9
130 8 180 -2z m-30 -97 c0 -5 -4 -10 -10 -10 -5 0 -10 5 -10 10 0 6 5 10 10
10 6 0 10 -4 10 -10z m-50 -10 c0 -5 -4 -10 -10 -10 -5 0 -10 5 -10 10 0 6 5
10 10 10 6 0 10 -4 10 -10z m-219 -23 c-10 -9 -11 -8 -5 6 3 10 9 15 12 12 3
-3 0 -11 -7 -18z"/>
<path d="M7410 12156 c0 -2 7 -9 15 -16 9 -7 15 -8 15 -2 0 5 -7 12 -15 16 -8
3 -15 4 -15 2z"/>
<path d="M4778 12073 c-10 -2 -18 -11 -18 -19 0 -10 4 -12 13 -7 6 4 28 13 47
19 l35 12 -30 0 c-16 0 -38 -2 -47 -5z"/>
<path d="M6465 11919 l-30 -7 31 -1 c16 0 35 -6 40 -11 7 -7 11 -6 11 4 0 8
-4 13 -8 10 -4 -2 -9 -1 -11 4 -1 4 -16 5 -33 1z"/>
<path d="M6360 11860 c0 -5 5 -10 11 -10 5 0 7 5 4 10 -3 6 -8 10 -11 10 -2 0
-4 -4 -4 -10z"/>
<path d="M6821 11824 c0 -11 3 -14 6 -6 3 7 2 16 -1 19 -3 4 -6 -2 -5 -13z"/>
<path d="M6870 11829 c0 -5 -4 -7 -10 -4 -13 8 -13 -5 0 -25 7 -11 10 -11 10
-2 0 7 4 11 9 8 5 -3 14 0 20 8 9 11 8 15 -5 20 -21 8 -24 8 -24 -5z"/>
<path d="M6396 11817 c3 -10 9 -15 12 -12 3 3 0 11 -7 18 -10 9 -11 8 -5 -6z"/>
<path d="M6470 11820 c0 -6 7 -10 15 -10 8 0 15 -7 15 -15 0 -8 6 -12 13 -9 7
2 35 -7 62 -21 60 -30 74 -32 51 -6 -10 11 -31 23 -48 26 -16 4 -32 13 -35 21
-3 8 -9 11 -14 8 -5 -3 -9 -1 -9 3 0 5 -11 10 -25 11 -14 1 -25 -3 -25 -8z"/>
<path d="M5281 11764 c0 -11 3 -14 6 -6 3 7 2 16 -1 19 -3 4 -6 -2 -5 -13z"/>
<path d="M7781 11500 c-1 -8 -8 -27 -15 -42 -8 -16 -10 -28 -5 -28 13 0 31 49
26 69 -4 13 -5 13 -6 1z"/>
<path d="M5675 11470 c-3 -5 -1 -10 4 -10 6 0 11 5 11 10 0 6 -2 10 -4 10 -3
0 -8 -4 -11 -10z"/>
<path d="M7840 11376 c0 -9 5 -16 10 -16 6 0 10 4 10 9 0 6 -4 13 -10 16 -5 3
-10 -1 -10 -9z"/>
<path d="M4610 11350 c6 -11 13 -20 16 -20 2 0 0 9 -6 20 -6 11 -13 20 -16 20
-2 0 0 -9 6 -20z"/>
<path d="M4625 11210 c3 -5 8 -10 11 -10 2 0 4 5 4 10 0 6 -5 10 -11 10 -5 0
-7 -4 -4 -10z"/>
<path d="M6182 11188 c-63 -31 -70 -44 -25 -53 45 -10 81 -7 108 8 11 6 34 13
50 17 l30 6 -25 16 c-42 26 -93 29 -138 6z"/>
<path d="M7840 11200 c-8 -5 -12 -11 -9 -14 3 -3 14 1 25 9 21 16 8 20 -16 5z"/>
<path d="M5693 11180 c-16 -6 -23 -18 -23 -35 0 -31 20 -41 51 -24 20 10 25 8
46 -17 13 -16 23 -23 23 -16 0 6 9 12 21 12 30 0 19 20 -30 58 -45 34 -53 36
-88 22z"/>
<path d="M4641 11144 c0 -11 3 -14 6 -6 3 7 2 16 -1 19 -3 4 -6 -2 -5 -13z"/>
<path d="M6093 11118 c-15 -22 -33 -68 -25 -68 7 0 52 65 52 75 0 10 -18 5
-27 -7z"/>
<path d="M6399 11093 c-13 -16 -12 -17 4 -4 9 7 17 15 17 17 0 8 -8 3 -21 -13z"/>
<path d="M4640 11070 c0 -5 5 -10 11 -10 5 0 7 5 4 10 -3 6 -8 10 -11 10 -2 0
-4 -4 -4 -10z"/>
<path d="M6348 11073 c7 -3 16 -2 19 1 4 3 -2 6 -13 5 -11 0 -14 -3 -6 -6z"/>
<path d="M5705 11051 c-7 -12 35 -26 44 -14 3 4 5 7 2 6 -2 -1 -12 2 -22 7
-11 6 -20 6 -24 1z"/>
<path d="M4644 11035 c4 -24 16 -30 16 -7 0 12 -4 22 -9 22 -5 0 -8 -7 -7 -15z"/>
<path d="M7830 11011 c0 -5 5 -13 10 -16 6 -3 10 -2 10 4 0 5 -4 13 -10 16 -5
3 -10 2 -10 -4z"/>
<path d="M5760 10997 c-8 -7 -24 -22 -34 -35 l-19 -22 32 11 c48 17 48 14 2
-61 -12 -21 -12 -22 3 -17 12 5 15 3 9 -5 -4 -7 -8 -21 -8 -30 -1 -10 -10 -27
-20 -38 -28 -31 -14 -32 21 -1 24 21 30 34 27 57 -3 16 -8 31 -13 34 -4 3 0
15 11 28 l18 23 7 -25 c3 -14 3 -30 -2 -37 -4 -7 -3 -10 3 -6 15 9 23 47 11
47 -6 0 -7 7 -4 16 4 10 2 13 -6 8 -8 -5 -9 -2 -5 9 3 9 3 16 -1 16 -26 -4
-32 2 -22 21 12 23 11 24 -10 7z"/>
<path d="M6344 10969 c2 -13 5 -39 5 -56 1 -21 6 -33 15 -33 11 0 11 9 2 49
-11 50 -30 85 -22 40z"/>
<path d="M7938 10963 c7 -3 16 -2 19 1 4 3 -2 6 -13 5 -11 0 -14 -3 -6 -6z"/>
<path d="M6210 10943 c0 -11 20 -40 20 -29 0 5 7 3 15 -4 21 -17 19 -7 -4 18
-19 22 -31 28 -31 15z"/>
<path d="M6320 10941 c0 -5 5 -13 10 -16 6 -3 10 -2 10 4 0 5 -4 13 -10 16 -5
3 -10 2 -10 -4z"/>
<path d="M6381 10934 c0 -11 3 -14 6 -6 3 7 2 16 -1 19 -3 4 -6 -2 -5 -13z"/>
<path d="M7456 10931 c-4 -7 -5 -15 -2 -18 9 -9 19 4 14 18 -4 11 -6 11 -12 0z"/>
<path d="M6205 10900 c3 -6 12 -10 20 -10 7 0 16 -5 18 -10 3 -6 4 -5 3 1 -1
7 -12 16 -25 20 -14 6 -20 5 -16 -1z"/>
<path d="M6520 10906 c0 -2 8 -10 18 -17 15 -13 16 -12 3 4 -13 16 -21 21 -21
13z"/>
<path d="M5657 10879 c-25 -19 -26 -19 -21 -2 6 14 4 16 -6 6 -13 -12 -7 -43
8 -43 4 0 18 14 30 30 26 35 26 36 -11 9z"/>
<path d="M5712 10891 c-7 -4 -15 -17 -17 -27 -2 -10 -4 -21 -4 -24 -1 -3 -5 1
-10 9 -7 11 -13 6 -26 -19 -13 -24 -19 -29 -25 -19 -7 10 -12 6 -21 -13 -6
-15 -20 -29 -30 -31 -21 -6 -24 5 -9 34 6 10 8 19 6 19 -3 0 -13 -14 -21 -31
-9 -17 -19 -29 -22 -26 -2 3 1 15 7 27 10 19 9 21 -7 18 -10 -2 -19 -9 -19
-16 -1 -6 -2 -20 -3 -29 -1 -15 -3 -16 -11 -3 -8 13 -11 13 -22 -1 -7 -8 -22
-22 -33 -29 -18 -14 -19 -14 -7 2 10 12 10 18 1 24 -7 4 -9 3 -5 -4 3 -6 2
-13 -4 -17 -6 -3 -17 -21 -26 -38 -11 -21 -12 -28 -3 -19 7 6 17 12 22 12 5 0
5 -6 -1 -12 -15 -20 -26 -118 -13 -118 12 0 12 1 16 38 1 12 6 26 10 30 4 4 6
0 5 -8 -9 -63 42 -4 54 63 4 21 14 41 21 44 8 3 13 8 10 12 -3 7 5 7 47 2 4
-1 6 -17 4 -36 l-2 -35 23 22 c13 12 23 31 23 42 0 19 0 19 14 1 13 -18 14
-18 32 0 29 28 46 67 48 105 0 19 5 41 9 48 10 14 7 15 -11 3z m-102 -134 c-9
-7 -14 -21 -13 -32 l3 -20 -9 20 c-14 29 -13 33 7 38 27 7 28 7 12 -6z m-140
-67 c0 -5 -4 -10 -10 -10 -5 0 -10 5 -10 10 0 6 5 10 10 10 6 0 10 -4 10 -10z"/>
<path d="M6321 10884 c0 -11 3 -14 6 -6 3 7 2 16 -1 19 -3 4 -6 -2 -5 -13z"/>
<path d="M6421 10880 c-1 -25 -22 -41 -37 -29 -10 8 -10 5 -1 -14 6 -14 15
-23 20 -20 14 8 45 -27 52 -58 6 -28 25 -41 25 -18 0 6 7 9 15 5 12 -4 15 4
15 44 0 29 -5 50 -11 50 -7 0 -8 -12 -4 -32 5 -30 3 -29 -22 16 -17 29 -29 43
-31 34 -2 -9 -12 -18 -23 -21 -20 -5 -20 -5 -4 13 9 10 15 25 12 32 -4 9 -6 9
-6 -2z"/>
<path d="M4660 10860 c-6 -12 -9 -24 -7 -27 3 -2 11 5 17 17 6 12 9 24 7 27
-3 2 -11 -5 -17 -17z"/>
<path d="M6261 10864 c0 -11 3 -14 6 -6 3 7 2 16 -1 19 -3 4 -6 -2 -5 -13z"/>
<path d="M5865 10859 c-4 -6 -17 -14 -29 -19 -14 -6 -16 -9 -5 -9 9 -1 24 8
34 19 10 11 15 20 12 20 -3 0 -9 -5 -12 -11z"/>
<path d="M6622 10853 c11 -15 11 -16 -6 -10 -16 6 -17 5 -6 -8 11 -13 11 -18
-3 -31 -9 -8 -15 -11 -12 -8 5 7 -24 33 -37 34 -4 0 -3 -12 3 -26 13 -37 2
-44 -22 -14 -17 21 -19 22 -10 3 14 -28 14 -63 0 -63 -6 0 -9 -6 -6 -12 2 -7
9 -13 15 -13 6 0 19 -11 29 -25 12 -17 13 -22 3 -14 -8 6 -42 16 -75 23 -33 7
-75 20 -94 27 -19 8 -57 17 -85 20 -28 4 -55 9 -59 11 -5 3 -7 -3 -5 -13 2
-11 9 -20 16 -20 6 -1 17 -2 23 -3 5 0 7 -6 3 -12 -5 -9 1 -10 20 -5 32 8 33
-5 4 -40 -39 -46 -49 -54 -64 -54 -8 0 -14 -5 -14 -11 0 -7 -16 -9 -47 -4 -27
3 -91 8 -143 10 -52 2 -102 4 -111 4 -9 1 -22 15 -29 31 -7 17 -15 30 -19 30
-12 0 -10 -44 2 -52 8 -5 6 -8 -5 -8 -10 0 -18 5 -18 10 0 6 -5 10 -11 10 -6
0 -9 -7 -5 -15 3 -9 0 -15 -8 -15 -8 0 -16 10 -20 23 -5 17 -8 19 -15 8 -11
-17 -23 1 -26 41 -3 33 -1 34 27 8 18 -16 19 -20 5 -20 -33 0 -25 -17 9 -18
28 -1 34 2 32 16 -2 9 -10 22 -18 29 -10 8 -11 12 -3 13 10 0 10 6 1 25 -12
27 -20 30 -46 15 -9 -5 -38 -18 -63 -29 -25 -11 -52 -27 -59 -36 -7 -8 -19
-15 -26 -15 -8 0 -22 -8 -32 -17 -10 -10 -30 -24 -44 -32 -16 -8 -26 -21 -25
-32 1 -20 7 -22 44 -19 17 1 21 -3 17 -14 -3 -9 -2 -16 3 -16 5 0 19 -9 31
-21 13 -11 28 -19 35 -16 7 2 26 -4 42 -13 17 -9 40 -16 53 -15 12 1 22 -2 22
-6 0 -3 9 -9 20 -12 11 -3 20 0 20 6 0 7 5 5 10 -3 8 -12 10 -9 10 13 0 28
-14 37 -23 15 -3 -7 -6 -3 -6 9 -1 12 4 25 9 28 6 3 10 2 10 -3 0 -6 7 -13 16
-16 12 -4 15 -2 10 9 -4 12 5 15 49 15 29 0 57 5 60 10 4 6 15 8 26 5 12 -4
21 -1 25 9 9 23 54 28 125 15 35 -6 80 -11 99 -11 19 1 38 -4 42 -11 5 -7 8
-3 8 12 0 17 4 22 16 17 9 -3 17 -6 19 -6 4 0 -4 -61 -10 -70 -3 -5 4 -19 15
-30 38 -38 118 -13 258 82 41 27 80 47 88 44 23 -9 44 4 45 28 0 20 1 20 9 1
8 -18 9 -18 9 5 0 14 -6 36 -14 50 -19 34 -18 43 3 38 10 -3 23 1 29 7 14 16
6 26 -14 18 -9 -4 -16 2 -20 16 -3 11 -8 21 -12 21 -9 0 -42 56 -36 61 2 2
-15 14 -37 26 -30 17 -37 18 -26 6z m33 -23 c3 -6 -1 -7 -9 -4 -18 7 -21 14
-7 14 6 0 13 -4 16 -10z m29 -45 c3 -8 1 -15 -4 -15 -6 0 -10 7 -10 15 0 8 2
15 4 15 2 0 6 -7 10 -15z m-74 -40 c4 3 13 -2 20 -10 7 -8 18 -15 25 -15 7 0
15 -13 17 -29 3 -18 0 -28 -6 -24 -5 4 -7 0 -3 -9 4 -12 1 -14 -14 -11 -22 6
-43 42 -52 88 -4 17 -4 24 -1 17 3 -6 9 -10 14 -7z m-20 -34 c-1 -13 -3 -13
-15 3 -19 26 -19 42 0 26 8 -7 15 -20 15 -29z m132 -79 c-7 -2 -10 -8 -6 -13
3 -5 3 -9 0 -9 -3 0 -10 9 -15 19 -9 17 -8 18 11 13 13 -3 17 -7 10 -10z
m-355 -14 c-3 -8 -6 -5 -6 6 -1 11 2 17 5 13 3 -3 4 -12 1 -19z m-597 -129 c0
-6 -4 -7 -10 -4 -5 3 -10 11 -10 16 0 6 5 7 10 4 6 -3 10 -11 10 -16z"/>
<path d="M6640 10691 c0 -6 5 -13 10 -16 6 -3 10 1 10 9 0 9 -4 16 -10 16 -5
0 -10 -4 -10 -9z"/>
<path d="M4671 10827 c-12 -23 -12 -31 -1 -52 19 -35 29 -19 21 34 l-6 44 -14
-26z"/>
<path d="M7441 10804 c0 -11 3 -14 6 -6 3 7 2 16 -1 19 -3 4 -6 -2 -5 -13z"/>
<path d="M6755 10770 c3 -5 8 -10 11 -10 2 0 4 5 4 10 0 6 -5 10 -11 10 -5 0
-7 -4 -4 -10z"/>
<path d="M7381 10734 c0 -11 3 -14 6 -6 3 7 2 16 -1 19 -3 4 -6 -2 -5 -13z"/>
<path d="M5537 10726 c-8 -8 -17 -12 -21 -9 -3 4 -6 -1 -6 -11 0 -9 5 -14 10
-11 6 3 10 0 10 -7 0 -7 7 0 15 16 18 33 14 44 -8 22z"/>
<path d="M4697 10723 c-4 -3 -7 -13 -7 -22 1 -13 3 -13 11 2 11 19 8 33 -4 20z"/>
<path d="M5850 10720 c0 -8 50 -40 64 -40 7 0 1 29 -9 37 -4 4 -5 2 -1 -4 4
-7 2 -13 -3 -13 -6 0 -11 7 -11 15 0 8 -9 15 -20 15 -11 0 -20 -4 -20 -10z"/>
<path d="M6115 10710 c-3 -5 -1 -10 4 -10 6 0 11 5 11 10 0 6 -2 10 -4 10 -3
0 -8 -4 -11 -10z"/>
<path d="M6800 10710 c0 -5 5 -10 10 -10 6 0 10 5 10 10 0 6 -4 10 -10 10 -5
0 -10 -4 -10 -10z"/>
<path d="M6784 10659 c4 -47 5 -49 16 -49 5 0 7 14 3 33 -8 45 -22 57 -19 16z"/>
<path d="M5357 10653 c-4 -3 -7 -16 -6 -27 0 -19 1 -19 10 3 10 24 8 36 -4 24z"/>
<path d="M4747 10643 c-4 -3 -7 -15 -7 -26 0 -25 9 -17 15 12 4 22 2 25 -8 14z"/>
<path d="M7346 10605 c-3 -8 -1 -15 4 -15 6 0 10 7 10 15 0 8 -2 15 -4 15 -2
0 -6 -7 -10 -15z"/>
<path d="M7368 10510 c-3 -19 -1 -29 6 -27 15 5 20 37 8 49 -6 6 -11 -1 -14
-22z"/>
<path d="M4786 10484 c-4 -9 -4 -19 -1 -22 3 -3 5 1 6 9 0 8 4 6 9 -6 8 -19 9
-19 9 2 1 27 -15 39 -23 17z"/>
<path d="M5012 10450 c0 -14 2 -19 5 -12 2 6 2 18 0 25 -3 6 -5 1 -5 -13z"/>
<path d="M4906 10441 c-4 -7 -5 -15 -2 -18 9 -9 19 4 14 18 -4 11 -6 11 -12 0z"/>
<path d="M7892 10427 c83 -39 116 -121 98 -243 -23 -152 -84 -293 -243 -559
-56 -94 -87 -139 -242 -355 -33 -47 -91 -128 -128 -181 -74 -107 -325 -435
-417 -544 -114 -136 -267 -359 -377 -550 -352 -612 -572 -1069 -828 -1715
-134 -339 -333 -955 -405 -1255 -40 -163 -164 -723 -194 -876 -92 -458 -127
-621 -138 -635 -20 -23 -72 -73 -74 -71 -2 1 -21 151 -44 332 -30 239 -43 395
-50 565 -5 129 -16 275 -24 324 -22 127 -38 528 -31 756 6 198 26 481 45 645
30 252 110 738 124 753 3 3 6 -29 6 -71 0 -42 3 -77 8 -77 11 0 61 199 67 267
3 32 12 148 21 258 15 199 33 336 57 430 11 46 15 50 40 48 37 -2 36 22 -7
142 -27 74 -62 138 -149 273 -64 97 -121 196 -128 219 -11 40 -10 46 24 115
20 40 67 142 105 225 39 84 114 234 167 334 53 99 94 183 91 186 -3 4 -37 -3
-74 -15 -37 -12 -92 -22 -122 -23 -30 0 -75 -4 -100 -9 -175 -33 -228 -46
-330 -77 -63 -20 -164 -48 -225 -63 -118 -29 -455 -158 -569 -218 -92 -48
-160 -102 -358 -282 -62 -57 -158 -190 -209 -292 -42 -84 -138 -370 -150 -451
-6 -38 -17 -83 -24 -100 -7 -18 -16 -65 -20 -105 -5 -50 -14 -81 -29 -101 -11
-16 -43 -57 -69 -92 -51 -67 -111 -184 -146 -286 -23 -68 -51 -216 -51 -269 0
-27 -14 -51 -62 -112 -34 -42 -74 -105 -90 -140 -30 -66 -78 -247 -98 -374
-11 -65 -20 -88 -61 -149 -27 -39 -49 -76 -49 -80 0 -5 -46 -59 -101 -121
-215 -239 -276 -363 -314 -631 -8 -59 -19 -116 -25 -127 -6 -11 -27 -66 -46
-122 -55 -158 -134 -316 -226 -450 -110 -161 -128 -194 -184 -329 -63 -154
-63 -154 -172 -299 -54 -71 -109 -152 -123 -182 -166 -334 -210 -430 -219
-468 -5 -25 -14 -133 -20 -240 -6 -107 -16 -249 -22 -315 -15 -163 -13 -323 5
-367 8 -20 36 -64 61 -99 26 -35 61 -93 78 -129 62 -131 166 -295 216 -342 62
-58 103 -79 275 -139 112 -40 158 -51 245 -59 59 -5 121 -13 137 -19 17 -5
138 -39 270 -76 286 -78 514 -151 609 -194 68 -31 69 -32 50 -52 -13 -15 -16
-24 -8 -37 17 -29 117 -73 198 -87 58 -10 83 -19 103 -39 l26 -26 -6 -203 -7
-202 -32 -27 c-30 -26 -31 -28 -14 -47 17 -18 10 -25 -221 -228 -130 -114
-253 -223 -273 -240 l-35 -32 4088 -1 4089 0 -7 83 c-4 45 -30 375 -59 733
l-52 651 -127 166 c-70 92 -127 170 -127 175 0 8 162 358 294 634 20 42 36 82
36 90 -1 36 151 513 245 768 65 177 109 341 130 485 16 110 50 480 60 645 3
58 12 179 20 270 8 91 19 228 25 305 6 77 15 178 21 225 5 47 7 135 3 195 l-6
111 36 28 c60 45 79 95 84 214 4 83 0 119 -19 195 -33 134 -31 275 6 377 25
69 28 92 36 300 5 124 13 302 17 395 20 390 -40 662 -184 840 -88 109 -358
375 -429 424 -124 86 -642 395 -820 490 -31 16 -90 43 -133 60 -77 30 -214 93
-372 171 -47 23 -118 55 -159 71 -45 18 -97 49 -130 78 -98 84 -413 324 -516
394 -172 117 -203 141 -209 164 -3 12 -39 66 -79 120 -101 135 -172 239 -251
365 -91 145 -154 197 -261 212 -38 6 -39 5 -13 -7z m-1379 -4793 c66 -35 224
-142 274 -188 28 -26 96 -102 150 -169 54 -67 133 -156 175 -198 l78 -77 -15
-42 c-8 -24 -15 -56 -15 -72 0 -16 -6 -30 -12 -33 -77 -24 -378 -99 -468 -115
-63 -12 -137 -28 -165 -36 -48 -13 -296 -45 -304 -38 -3 3 -24 274 -38 502 -4
73 -5 141 -2 150 4 9 50 60 104 112 53 52 117 123 142 158 24 34 49 62 54 62
6 0 24 -7 42 -16z m927 -1509 c7 -8 21 -15 32 -15 21 0 35 -10 87 -61 45 -45
122 -74 181 -70 15 1 36 -9 52 -24 16 -15 39 -25 56 -25 16 0 56 -3 90 -6 73
-8 86 -25 69 -97 -7 -33 -21 -56 -47 -79 -63 -57 -63 -57 -297 -58 -254 -2
-284 4 -323 63 l-24 39 -11 -32 c-6 -17 -25 -42 -43 -56 -36 -29 -41 -44 -13
-44 11 0 26 -6 34 -14 17 -17 125 -24 152 -10 48 26 146 36 297 32 189 -6 221
-16 240 -80 35 -122 -8 -271 -89 -300 -18 -7 -33 -15 -33 -19 0 -4 -12 -10
-26 -13 -43 -11 -60 16 -56 86 5 74 -1 98 -32 131 -23 25 -66 29 -66 5 0 -5 5
-6 10 -3 6 3 10 2 10 -4 0 -5 -6 -11 -12 -14 -10 -3 -10 -7 -1 -17 9 -10 8
-18 -5 -38 -9 -14 -19 -46 -23 -71 l-6 -46 -2 51 c-1 33 -7 60 -18 73 -17 21
-18 20 -15 -57 5 -110 -10 -143 -74 -166 -138 -49 -214 -84 -214 -96 0 -4 7
-11 16 -14 11 -4 15 -14 12 -31 -7 -37 21 -32 73 11 59 49 79 55 160 48 63 -6
72 -5 106 19 43 28 132 50 169 41 29 -7 32 -41 7 -82 -17 -28 -91 -102 -102
-102 -3 -1 -33 -38 -66 -83 -56 -78 -124 -137 -157 -137 -8 0 -84 17 -169 37
-128 31 -176 38 -284 40 -481 12 -1066 41 -1170 57 -16 3 -113 8 -215 11 -371
11 -668 36 -682 58 -4 7 -5 21 -2 32 3 11 6 47 8 80 1 33 9 76 16 95 7 19 15
41 17 49 3 11 6 11 20 0 15 -13 15 -12 2 8 -11 18 -11 25 -1 35 6 6 12 25 12
40 0 37 22 89 46 109 26 21 96 40 169 46 33 2 74 6 90 7 17 1 41 7 55 13 14 6
63 25 110 43 50 19 136 66 210 114 136 89 164 103 350 172 390 144 532 190
636 209 51 8 120 27 155 41 86 33 172 55 239 60 132 9 162 12 167 18 13 13
111 6 123 -9z m-5006 -181 c21 -8 46 -14 55 -14 9 -1 34 -9 56 -20 22 -11 48
-19 57 -20 10 0 22 -9 28 -20 7 -13 20 -20 38 -19 24 0 24 1 7 8 -11 5 16 6
60 3 77 -4 83 -7 162 -58 44 -30 86 -54 92 -54 6 0 11 -4 11 -10 0 -5 7 -10
15 -10 8 0 15 -5 15 -12 0 -6 3 -9 6 -5 3 3 16 -4 28 -17 13 -12 47 -37 77
-56 194 -121 243 -153 247 -163 2 -4 9 -13 16 -20 11 -11 36 -62 36 -73 0 -3
-9 0 -19 6 -36 19 -46 9 -11 -11 36 -20 30 -21 -37 -3 -26 7 -32 -13 -8 -22 8
-4 15 -10 15 -15 0 -4 -6 -6 -14 -3 -17 6 -32 -14 -20 -26 5 -5 50 -16 100
-24 77 -12 157 -38 174 -56 3 -3 25 -12 50 -20 50 -17 51 -17 83 -19 12 -1
-38 -24 -111 -52 -90 -33 -141 -47 -157 -43 -30 8 -67 -18 -145 -102 -30 -32
-72 -75 -94 -94 -131 -118 -158 -151 -201 -243 -63 -136 -87 -339 -52 -432 8
-22 20 -54 27 -72 9 -24 9 -37 0 -50 -9 -16 -10 -15 -5 7 5 19 4 22 -4 10 -17
-24 -13 -35 23 -73 18 -20 38 -49 44 -65 10 -28 9 -29 -19 -27 -40 3 -119 -14
-119 -27 0 -6 -7 -8 -15 -4 -8 3 -15 2 -15 -2 0 -4 -12 -13 -27 -20 -37 -16
-72 -37 -86 -51 -6 -6 -21 -11 -32 -11 -12 0 -25 -3 -29 -7 -8 -8 -34 -14 -56
-12 -74 4 -131 9 -160 14 -19 4 -43 8 -52 9 -10 1 -20 5 -24 8 -3 4 -12 4 -19
2 -7 -3 -16 -1 -19 5 -4 6 -13 8 -21 5 -9 -4 -17 3 -21 22 -7 27 -7 27 -16 5
-6 -17 -13 -21 -28 -16 -11 4 -20 2 -20 -4 0 -6 -9 -11 -20 -11 -11 0 -20 7
-20 15 0 14 -3 13 -25 -1 -14 -9 -28 -14 -31 -11 -4 3 -23 0 -43 -8 -33 -12
-45 -14 -83 -15 -18 -1 -115 18 -141 26 -28 10 -49 15 -64 16 -7 1 -11 3 -9 5
2 2 -14 22 -35 43 -21 21 -40 44 -41 52 0 7 -2 25 -3 39 -4 48 -83 171 -141
217 -77 61 -86 109 -40 214 9 21 16 54 16 75 0 28 3 34 10 23 6 -9 10 -10 10
-3 0 6 -5 15 -11 19 -6 3 -8 17 -4 31 4 19 -1 30 -27 51 -17 15 -54 50 -81 77
-46 47 -48 52 -44 95 2 31 16 65 42 105 21 33 52 85 68 115 33 58 61 168 47
185 -11 15 -40 119 -40 147 0 12 8 35 18 49 9 14 32 49 51 78 38 59 98 108
165 136 35 14 46 24 46 41 0 32 35 71 77 85 35 11 132 80 195 138 15 13 58 35
95 47 73 25 122 24 197 -2z m2240 -448 c36 -13 86 -40 110 -59 36 -31 49 -35
78 -31 43 7 69 -17 50 -47 -7 -10 -12 -30 -12 -44 0 -14 -8 -42 -19 -63 -19
-39 -33 -117 -36 -215 -2 -33 -7 -62 -11 -67 -13 -12 -328 7 -412 24 -86 19
-114 40 -108 82 9 72 75 168 151 221 17 11 64 31 105 43 41 12 86 27 100 32
l25 10 -30 16 c-17 8 -25 17 -18 19 18 6 -7 43 -29 43 -10 0 -18 3 -18 8 0 6
-35 6 -117 -2 -47 -4 -141 -55 -187 -102 -91 -90 -142 -177 -131 -221 4 -17 2
-21 -10 -17 -9 4 -15 0 -15 -10 0 -10 6 -13 18 -9 28 10 42 24 35 36 -3 6 -1
7 5 3 14 -8 36 30 26 46 -4 7 -3 8 4 4 6 -3 16 3 22 14 8 15 15 18 28 11 9 -5
24 -12 34 -15 18 -5 13 -41 -14 -103 -14 -32 -14 -32 -27 -11 l-14 22 -23 -27
c-18 -21 -29 -26 -48 -21 -14 3 -25 9 -24 13 2 18 -4 21 -21 12 -14 -8 -32 -5
-71 11 -47 19 -51 24 -45 47 19 84 184 357 220 364 11 2 97 5 192 6 158 1 177
-1 237 -23z m-364 -150 c0 -2 -8 -10 -17 -17 -16 -13 -17 -12 -4 4 13 16 21
21 21 13z m3328 -171 c-3 -51 -5 -55 -27 -55 -23 0 -23 1 -7 13 9 7 20 32 23
55 8 59 14 52 11 -13z m-3415 -187 c-18 -6 -35 -19 -38 -29 -4 -11 -13 -25
-21 -33 -44 -44 -154 -293 -154 -349 0 -24 -26 -27 -49 -6 -15 14 -21 32 -21
64 0 43 21 161 36 199 5 14 4 17 -4 12 -7 -4 -12 -3 -12 1 0 11 85 93 96 93 5
0 21 8 34 18 30 20 93 39 135 40 l30 0 -32 -10z m-768 -178 c3 -5 1 -10 -4
-10 -6 0 -11 5 -11 10 0 6 2 10 4 10 3 0 8 -4 11 -10z m97 -33 c4 -6 4 -14 1
-17 -3 -3 -8 1 -10 8 -3 6 -14 12 -26 12 -12 0 -29 5 -37 11 -11 8 -5 9 25 4
22 -4 43 -12 47 -18z m258 -172 c0 -8 -2 -15 -4 -15 -2 0 -6 7 -10 15 -3 8 -1
15 4 15 6 0 10 -7 10 -15z m26 -121 c7 -67 1 -125 -17 -182 -10 -31 -12 -32
-28 -18 -13 12 -20 13 -29 4 -6 -6 -13 -10 -15 -7 -2 2 -2 63 1 134 l4 130 38
1 39 2 7 -64z m-786 -9 c-5 -60 1 -83 13 -52 3 6 6 0 6 -15 1 -29 -13 -38 -23
-15 -3 6 -3 -22 0 -63 4 -63 3 -72 -8 -55 -23 37 -11 265 14 265 2 0 1 -29 -2
-65z m930 -635 c6 -140 13 -291 16 -335 6 -98 -5 -86 -43 43 -27 92 -27 103 2
387 l4 40 -14 -40 c-7 -22 -14 -35 -14 -30 -1 6 -5 4 -10 -4 -8 -12 -12 -13
-26 -1 -14 11 -17 10 -22 -8 -8 -33 -18 -27 -33 19 -14 40 -13 42 11 63 29 25
43 62 44 123 1 26 8 50 20 63 l19 21 13 -23 c12 -23 12 -23 14 7 3 40 7 -24
19 -325z m-160 105 c0 -8 -4 -15 -10 -15 -5 0 -10 7 -10 15 0 8 5 15 10 15 6
0 10 -7 10 -15z m-500 -805 c0 -5 -2 -10 -4 -10 -3 0 -8 5 -11 10 -3 6 -1 10
4 10 6 0 11 -4 11 -10z m2057 -866 c-3 -3 -12 -4 -19 -1 -8 3 -5 6 6 6 11 1
17 -2 13 -5z m56 -11 c-7 -2 -19 -2 -25 0 -7 3 -2 5 12 5 14 0 19 -2 13 -5z
m-280 -30 c-7 -2 -19 -2 -25 0 -7 3 -2 5 12 5 14 0 19 -2 13 -5z m44 1 c-3 -3
-12 -4 -19 -1 -8 3 -5 6 6 6 11 1 17 -2 13 -5z m546 -61 c-13 -2 -33 -2 -45 0
-13 2 -3 4 22 4 25 0 35 -2 23 -4z"/>
<path d="M6370 3870 c-8 -5 -10 -10 -5 -10 6 0 17 5 25 10 8 5 11 10 5 10 -5
0 -17 -5 -25 -10z"/>
<path d="M6278 3833 c7 -3 16 -2 19 1 4 3 -2 6 -13 5 -11 0 -14 -3 -6 -6z"/>
<path d="M6169 3783 c-13 -15 -12 -15 11 -3 34 17 36 20 18 20 -9 0 -22 -7
-29 -17z"/>
<path d="M7000 3670 c0 -5 7 -10 16 -10 8 0 12 5 9 10 -3 6 -10 10 -16 10 -5
0 -9 -4 -9 -10z"/>
<path d="M7160 3644 c0 -14 3 -14 15 -4 8 7 15 14 15 16 0 2 -7 4 -15 4 -8 0
-15 -7 -15 -16z"/>
<path d="M7440 3621 c0 -5 12 -12 28 -16 15 -3 48 -30 75 -58 31 -34 47 -45
47 -34 0 9 -3 17 -7 17 -5 0 -16 14 -25 30 -26 45 -118 93 -118 61z"/>
<path d="M7570 3595 c0 -16 27 -31 48 -27 l25 5 -24 13 c-25 14 -49 18 -49 9z"/>
<path d="M7628 3543 c7 -3 16 -2 19 1 4 3 -2 6 -13 5 -11 0 -14 -3 -6 -6z"/>
<path d="M7663 3513 c9 -2 23 -2 30 0 6 3 -1 5 -18 5 -16 0 -22 -2 -12 -5z"/>
<path d="M4740 3390 c0 -5 5 -10 11 -10 5 0 7 5 4 10 -3 6 -8 10 -11 10 -2 0
-4 -4 -4 -10z"/>
<path d="M4788 3393 c7 -3 16 -2 19 1 4 3 -2 6 -13 5 -11 0 -14 -3 -6 -6z"/>
<path d="M3946 2112 c-2 -4 -1 -14 5 -22 7 -12 9 -10 9 8 0 23 -5 28 -14 14z"/>
<path d="M3951 1994 c0 -11 3 -14 6 -6 3 7 2 16 -1 19 -3 4 -6 -2 -5 -13z"/>
<path d="M4851 10408 c0 -9 -4 -25 -7 -35 -5 -14 -4 -15 5 -7 7 7 11 22 8 35
-2 13 -5 16 -6 7z"/>
<path d="M4870 10383 c0 -17 5 -35 10 -38 13 -8 13 35 0 55 -7 11 -10 7 -10
-17z"/>
<path d="M4951 10374 c0 -11 3 -14 6 -6 3 7 2 16 -1 19 -3 4 -6 -2 -5 -13z"/>
<path d="M5002 10350 c0 -19 2 -27 5 -17 2 9 2 25 0 35 -3 9 -5 1 -5 -18z"/>
<path d="M4920 10305 c-7 -9 -11 -18 -8 -20 3 -3 11 1 18 10 7 9 11 18 8 20
-3 3 -11 -1 -18 -10z"/>
<path d="M5837 10281 c-4 -17 -3 -21 5 -13 5 5 8 16 6 23 -3 8 -7 3 -11 -10z"/>
<path d="M5862 10275 c-7 -15 -11 -30 -8 -32 2 -2 7 5 11 18 5 15 10 18 15 9
5 -8 9 -7 13 5 4 9 3 14 -2 10 -5 -3 -11 0 -13 6 -2 6 -9 -1 -16 -16z"/>
<path d="M6346 10291 c-8 -13 4 -42 15 -35 12 7 12 44 0 44 -6 0 -12 -4 -15
-9z"/>
<path d="M6161 10262 c-7 -15 -10 -39 -7 -52 2 -14 5 -28 5 -32 2 -19 21 -5
27 18 l7 27 12 -23 c12 -22 23 -18 19 8 -1 6 -2 19 -3 28 0 8 -5 12 -11 9 -5
-3 -10 3 -10 13 0 32 -27 34 -39 4z"/>
<path d="M7239 10277 c7 -9 17 -32 21 -50 7 -28 8 -26 7 16 -1 27 -3 44 -5 37
-3 -8 -9 -7 -20 2 -15 12 -16 11 -3 -5z"/>
<path d="M5126 10265 c-11 -8 -15 -15 -9 -15 6 0 16 7 23 15 16 19 11 19 -14
0z"/>
<path d="M6241 10273 c-2 -18 20 -61 34 -67 8 -3 10 4 7 20 -2 13 -10 24 -17
24 -8 0 -16 8 -18 18 -3 9 -5 12 -6 5z"/>
<path d="M5901 10254 c0 -11 3 -14 6 -6 3 7 2 16 -1 19 -3 4 -6 -2 -5 -13z"/>
<path d="M5940 10260 c0 -5 5 -10 11 -10 5 0 7 5 4 10 -3 6 -8 10 -11 10 -2 0
-4 -4 -4 -10z"/>
<path d="M5998 10252 c-10 -2 -18 -11 -18 -20 0 -15 2 -15 10 -2 8 13 10 13
10 1 0 -11 3 -12 11 -4 15 15 8 29 -13 25z"/>
<path d="M6031 10237 c-16 -30 -11 -75 8 -72 8 1 17 8 19 15 3 9 0 10 -9 4
-11 -6 -12 -5 -3 7 10 12 10 56 0 66 -1 2 -8 -7 -15 -20z"/>
<path d="M4915 10230 c-3 -5 -1 -10 4 -10 6 0 11 5 11 10 0 6 -2 10 -4 10 -3
0 -8 -4 -11 -10z"/>
<path d="M6100 10231 c0 -6 -8 -11 -18 -11 -10 0 -19 -7 -19 -15 0 -8 5 -11
10 -8 6 4 8 -5 4 -23 l-5 -29 23 27 c20 24 24 25 28 10 3 -11 5 -7 6 9 0 15
-6 32 -14 39 -10 9 -15 9 -15 1z"/>
<path d="M4930 10176 c0 -22 3 -27 11 -19 8 8 8 16 0 30 -9 16 -10 14 -11 -11z"/>
<path d="M5003 10189 c3 -9 1 -21 -4 -26 -5 -5 1 -14 14 -22 20 -13 21 -13 9
2 -8 9 -11 20 -9 25 3 4 1 14 -5 22 -8 13 -9 12 -5 -1z"/>
<path d="M5034 10168 c-4 -6 -2 -14 5 -16 9 -3 9 -7 0 -18 -6 -8 -15 -11 -20
-8 -5 3 -12 -2 -15 -11 -8 -20 -34 -1 -34 26 0 22 -8 23 -34 4 -17 -13 -17
-15 -2 -37 9 -12 16 -19 16 -15 0 20 30 -24 31 -45 0 -18 5 -13 21 22 17 36
22 41 27 27 6 -17 8 -16 21 7 7 14 17 26 22 26 17 0 7 18 -13 23 -12 3 -18 10
-14 16 3 6 4 11 1 11 -3 0 -8 -5 -12 -12z"/>
<path d="M6925 10090 c26 -29 27 -31 5 -17 -13 10 -29 17 -35 17 -5 0 6 -11
26 -23 22 -13 34 -28 32 -37 -4 -13 -3 -13 6 0 6 8 8 23 5 33 -3 9 -1 17 5 17
6 0 12 -4 12 -10 2 -16 5 -22 23 -63 9 -21 14 -42 11 -47 -3 -5 0 -12 6 -16 9
-5 10 2 4 27 -4 19 -8 42 -8 52 -1 9 -5 17 -9 17 -4 0 -8 6 -8 13 0 8 -9 22
-20 32 -13 11 -20 14 -20 6 0 -8 -12 -4 -32 10 l-33 22 30 -33z"/>
<path d="M5210 10012 c0 -5 -14 -6 -31 -4 -21 3 -30 1 -25 -6 3 -6 19 -9 34
-7 15 2 30 4 35 4 11 1 8 21 -3 21 -5 0 -10 -4 -10 -8z"/>
<path d="M5288 9973 c6 -2 18 -2 25 0 6 3 1 5 -13 5 -14 0 -19 -2 -12 -5z"/>
<path d="M6430 9750 c-6 -11 -8 -20 -6 -20 3 0 10 9 16 20 6 11 8 20 6 20 -3
0 -10 -9 -16 -20z"/>
<path d="M6180 9695 c0 -27 2 -46 5 -43 8 8 9 77 2 85 -4 3 -7 -15 -7 -42z"/>
<path d="M6282 9718 c-6 -6 -11 -23 -11 -37 1 -21 2 -22 6 -6 3 11 10 23 15
26 6 4 9 12 7 18 -3 9 -8 8 -17 -1z"/>
<path d="M6451 9714 c0 -11 3 -14 6 -6 3 7 2 16 -1 19 -3 4 -6 -2 -5 -13z"/>
<path d="M6307 9699 c-9 -34 -9 -36 8 -36 16 0 18 11 6 41 -7 18 -8 18 -14 -5z"/>
<path d="M7601 9701 c-1 -8 -9 -24 -18 -35 -16 -20 -16 -20 6 0 13 12 21 28
18 35 -4 11 -6 11 -6 0z"/>
<path d="M6074 9646 c0 -19 4 -32 8 -30 10 7 10 35 0 51 -5 8 -8 -1 -8 -21z"/>
<path d="M6341 9654 c0 -11 3 -14 6 -6 3 7 2 16 -1 19 -3 4 -6 -2 -5 -13z"/>
<path d="M7453 9656 c-7 -8 -18 -16 -25 -19 -7 -2 -10 -7 -7 -11 10 -11 81 22
74 34 -9 14 -28 12 -42 -4z"/>
<path d="M6321 9634 c0 -11 3 -14 6 -6 3 7 2 16 -1 19 -3 4 -6 -2 -5 -13z"/>
<path d="M7395 9620 c-3 -5 -1 -10 4 -10 6 0 11 5 11 10 0 6 -2 10 -4 10 -3 0
-8 -4 -11 -10z"/>
<path d="M7313 9574 c0 -16 13 -19 21 -5 3 5 0 11 -7 14 -8 3 -14 -1 -14 -9z"/>
<path d="M7255 9560 c-3 -6 1 -7 9 -4 18 7 21 14 7 14 -6 0 -13 -4 -16 -10z"/>
<path d="M7286 9444 c-23 -23 -20 -30 4 -9 11 10 20 20 20 22 0 7 -9 2 -24
-13z"/>
<path d="M7134 9405 c11 -8 27 -15 35 -15 10 1 7 6 -9 15 -33 19 -50 18 -26 0z"/>
<path d="M7068 9323 c6 -2 18 -2 25 0 6 3 1 5 -13 5 -14 0 -19 -2 -12 -5z"/>
<path d="M6811 9281 c-8 -5 -19 -8 -25 -7 -6 2 -7 1 -3 -2 4 -2 2 -11 -5 -20
-11 -14 -9 -14 8 1 11 9 26 17 32 17 6 0 14 5 17 10 8 12 -5 13 -24 1z"/>
<path d="M6803 9238 c-10 -3 -13 -7 -8 -7 7 -1 7 -4 0 -9 -5 -4 -19 -18 -30
-31 l-20 -25 33 23 c17 12 32 26 32 31 0 5 21 10 48 12 l47 3 -42 5 c-23 3
-50 2 -60 -2z"/>
<path d="M6988 9243 c6 -2 18 -2 25 0 6 3 1 5 -13 5 -14 0 -19 -2 -12 -5z"/>
<path d="M6018 9213 c7 -3 16 -2 19 1 4 3 -2 6 -13 5 -11 0 -14 -3 -6 -6z"/>
<path d="M6690 9210 c-8 -5 -12 -11 -9 -14 2 -3 11 -1 19 4 8 5 12 11 9 14 -2
3 -11 1 -19 -4z"/>
<path d="M6170 9194 l-35 -13 38 0 c21 -1 36 3 33 8 -4 5 0 12 6 14 29 12 -10
4 -42 -9z"/>
<path d="M6725 9200 c3 -5 8 -10 11 -10 2 0 4 5 4 10 0 6 -5 10 -11 10 -5 0
-7 -4 -4 -10z"/>
<path d="M6515 9190 c-3 -6 1 -7 9 -4 18 7 21 14 7 14 -6 0 -13 -4 -16 -10z"/>
<path d="M6140 9160 c-9 -6 -10 -10 -3 -10 6 0 15 5 18 10 8 12 4 12 -15 0z"/>
<path d="M6648 9163 c6 -2 18 -2 25 0 6 3 1 5 -13 5 -14 0 -19 -2 -12 -5z"/>
<path d="M6178 9153 c7 -3 16 -2 19 1 4 3 -2 6 -13 5 -11 0 -14 -3 -6 -6z"/>
<path d="M6268 9153 c7 -3 16 -2 19 1 4 3 -2 6 -13 5 -11 0 -14 -3 -6 -6z"/>
<path d="M6758 9153 c7 -3 16 -2 19 1 4 3 -2 6 -13 5 -11 0 -14 -3 -6 -6z"/>
<path d="M6200 9140 c-9 -6 -10 -10 -3 -10 6 0 18 -3 26 -6 8 -3 17 2 20 10 7
18 -19 22 -43 6z"/>
<path d="M6428 9143 c7 -3 16 -2 19 1 4 3 -2 6 -13 5 -11 0 -14 -3 -6 -6z"/>
<path d="M6480 9130 c8 -5 22 -9 30 -9 10 0 8 3 -5 9 -27 12 -43 12 -25 0z"/>
<path d="M6058 9123 c7 -3 16 -2 19 1 4 3 -2 6 -13 5 -11 0 -14 -3 -6 -6z"/>
<path d="M6558 9103 c7 -3 16 -2 19 1 4 3 -2 6 -13 5 -11 0 -14 -3 -6 -6z"/>
<path d="M5750 9090 c0 -5 5 -10 10 -10 6 0 10 5 10 10 0 6 -4 10 -10 10 -5 0
-10 -4 -10 -10z"/>
<path d="M6200 9084 c-24 -13 -22 -14 30 -12 30 0 43 3 27 5 -15 2 -25 9 -22
14 8 12 -5 10 -35 -7z"/>
<path d="M6433 9093 c9 -2 25 -2 35 0 9 3 1 5 -18 5 -19 0 -27 -2 -17 -5z"/>
<path d="M5577 9075 c-28 -94 -33 -140 -22 -215 8 -55 8 -55 30 -33 17 16 17
16 12 -2 -32 -107 -57 -235 -57 -292 0 -38 -9 -120 -21 -182 -20 -111 -20
-152 1 -95 6 16 15 38 20 49 14 27 40 152 40 192 0 34 18 83 31 83 4 0 13 17
20 38 6 20 16 43 21 49 6 7 13 41 15 76 5 52 0 82 -26 168 -59 190 -57 186
-64 164z"/>
<path d="M6798 9083 c7 -3 16 -2 19 1 4 3 -2 6 -13 5 -11 0 -14 -3 -6 -6z"/>
<path d="M5940 9039 c0 -5 5 -7 10 -4 6 3 10 8 10 11 0 2 -4 4 -10 4 -5 0 -10
-5 -10 -11z"/>
<path d="M5770 9032 c0 -10 43 -52 53 -52 4 0 -2 14 -15 30 -21 29 -38 39 -38
22z"/>
<path d="M5865 8990 c-3 -5 1 -10 9 -10 9 0 16 5 16 10 0 6 -4 10 -9 10 -6 0
-13 -4 -16 -10z"/>
<path d="M5980 8986 c0 -2 7 -7 16 -10 8 -3 12 -2 9 4 -6 10 -25 14 -25 6z"/>
<path d="M6033 8983 c9 -2 23 -2 30 0 6 3 -1 5 -18 5 -16 0 -22 -2 -12 -5z"/>
<path d="M6138 8983 c7 -3 16 -2 19 1 4 3 -2 6 -13 5 -11 0 -14 -3 -6 -6z"/>
<path d="M5607 8446 c-4 -49 -5 -91 -3 -93 6 -6 19 140 14 163 -2 10 -7 -21
-11 -70z"/>
<path d="M3197 933 c-4 -3 -7 -11 -7 -17 0 -6 5 -5 12 2 6 6 9 14 7 17 -3 3
-9 2 -12 -2z"/>
</g>
</svg>
